<?xml version="1.0" encoding="UTF-8"?>
<svg width="144px" height="26px" viewBox="0 0 144 26" version="1.1" xmlns="http://www.w3.org/2000/svg" xmlns:xlink="http://www.w3.org/1999/xlink">
    <!-- Generator: Sketch 45.1 (43504) - http://www.bohemiancoding.com/sketch -->
    <title>pulse-logo-primary</title>
    <desc>Created with Sketch.</desc>
    <defs></defs>
    <g id="Page-1" stroke="none" stroke-width="1" fill="none" fill-rule="evenodd">
        <g id="Artboard" transform="translate(-552.000000, -319.000000)" fill="#FFFFFF">
            <g id="pulse-logo-primary" transform="translate(552.000000, 319.000000)">
                <path d="M46.24,21 C46.0799992,21 46,20.9200008 46,20.76 L46,4.92 C46,4.7599992 46.0799992,4.68 46.24,4.68 L52.36,4.68 C53.1440039,4.68 53.8679967,4.80399876 54.532,5.052 C55.1960033,5.30000124 55.7639976,5.6439978 56.236,6.084 C56.7080024,6.5240022 57.0759987,7.05599688 57.34,7.68 C57.6040013,8.30400312 57.736,8.99199624 57.736,9.744 C57.736,10.5120038 57.6040013,11.2079969 57.34,11.832 C57.0759987,12.4560031 56.7080024,12.9879978 56.236,13.428 C55.7639976,13.8680022 55.1960033,14.2119988 54.532,14.46 C53.8679967,14.7080012 53.1440039,14.832 52.36,14.832 L48.976,14.832 C48.8799995,14.832 48.832,14.8799995 48.832,14.976 L48.832,20.76 C48.832,20.9200008 48.7520008,21 48.592,21 L46.24,21 Z M52.192,12.264 C53.0400042,12.264 53.7039976,12.0360023 54.184,11.58 C54.6640024,11.1239977 54.904,10.5120038 54.904,9.744 C54.904,8.99199624 54.6640024,8.38400232 54.184,7.92 C53.7039976,7.45599768 53.0400042,7.224 52.192,7.224 L48.976,7.224 C48.8799995,7.224 48.832,7.27199952 48.832,7.368 L48.832,12.12 C48.832,12.2160005 48.8799995,12.264 48.976,12.264 L52.192,12.264 Z M73.756,18.72 C74.7000047,18.72 75.467997,18.420003 76.06,17.82 C76.652003,17.219997 76.948,16.3520057 76.948,15.216 L76.948,4.92 C76.948,4.7599992 77.0279992,4.68 77.188,4.68 L79.54,4.68 C79.7000008,4.68 79.78,4.7599992 79.78,4.92 L79.78,15.264 C79.78,16.2080047 79.6280015,17.0519963 79.324,17.796 C79.0199985,18.5400037 78.6000027,19.1679974 78.064,19.68 C77.5279973,20.1920026 76.8920037,20.5839986 76.156,20.856 C75.4199963,21.1280014 74.6200043,21.264 73.756,21.264 C72.8919957,21.264 72.0960036,21.1280014 71.368,20.856 C70.6399964,20.5839986 70.0080027,20.1920026 69.472,19.68 C68.9359973,19.1679974 68.5160015,18.5400037 68.212,17.796 C67.9079985,17.0519963 67.756,16.2080047 67.756,15.264 L67.756,4.92 C67.756,4.7599992 67.8359992,4.68 67.996,4.68 L70.348,4.68 C70.5080008,4.68 70.588,4.7599992 70.588,4.92 L70.588,15.216 C70.588,16.3520057 70.883997,17.219997 71.476,17.82 C72.068003,18.420003 72.8279954,18.72 73.756,18.72 Z M90.784,4.92 C90.784,4.7599992 90.8639992,4.68 91.024,4.68 L93.376,4.68 C93.5360008,4.68 93.616,4.7599992 93.616,4.92 L93.616,18.312 C93.616,18.4080005 93.6639995,18.456 93.76,18.456 L101.248,18.456 C101.408001,18.456 101.488,18.5359992 101.488,18.696 L101.488,20.76 C101.488,20.9200008 101.408001,21 101.248,21 L91.024,21 C90.8639992,21 90.784,20.9200008 90.784,20.76 L90.784,4.92 Z M116.5,21.264 C115.891997,21.264 115.300003,21.2080006 114.724,21.096 C114.147997,20.9839994 113.600003,20.832001 113.08,20.64 C112.559997,20.447999 112.080002,20.2200013 111.64,19.956 C111.199998,19.6919987 110.820002,19.4080015 110.5,19.104 C110.371999,18.9759994 110.356,18.8560006 110.452,18.744 L111.94,17.016 C112.052001,16.8879994 112.163999,16.8799994 112.276,16.992 C112.532001,17.200001 112.823998,17.407999 113.152,17.616 C113.480002,17.824001 113.831998,18.0079992 114.208,18.168 C114.584002,18.3280008 114.979998,18.4599995 115.396,18.564 C115.812002,18.6680005 116.251998,18.72 116.716,18.72 C117.692005,18.72 118.447997,18.5000022 118.984,18.06 C119.520003,17.6199978 119.788,17.0560034 119.788,16.368 C119.788,15.775997 119.572002,15.2920019 119.14,14.916 C118.707998,14.5399981 117.932006,14.2720008 116.812,14.112 L115.948,13.992 C114.363992,13.7679989 113.148004,13.2760038 112.3,12.516 C111.451996,11.7559962 111.028,10.6960068 111.028,9.336 C111.028,8.59999632 111.155999,7.92800304 111.412,7.32 C111.668001,6.71199696 112.035998,6.19200216 112.516,5.76 C112.996002,5.32799784 113.575997,4.99600116 114.256,4.764 C114.936003,4.53199884 115.699996,4.416 116.548,4.416 C117.572005,4.416 118.543995,4.56399852 119.464,4.86 C120.384005,5.15600148 121.171997,5.55199752 121.828,6.048 C121.940001,6.14400048 121.956,6.25599936 121.876,6.384 L120.724,8.16 C120.628,8.28800064 120.516001,8.3120004 120.388,8.232 C119.715997,7.79999784 119.068003,7.48000104 118.444,7.272 C117.819997,7.06399896 117.164003,6.96 116.476,6.96 C115.643996,6.96 115.008002,7.16399796 114.568,7.572 C114.127998,7.98000204 113.908,8.5039968 113.908,9.144 C113.908,9.7040028 114.131998,10.1719981 114.58,10.548 C115.028002,10.9240019 115.803994,11.1919992 116.908,11.352 L117.772,11.472 C119.356008,11.6960011 120.563996,12.1879962 121.396,12.948 C122.228004,13.7080038 122.644,14.791993 122.644,16.2 C122.644,16.9200036 122.516001,17.5919969 122.26,18.216 C122.003999,18.8400031 121.616003,19.3759978 121.096,19.824 C120.575997,20.2720022 119.932004,20.6239987 119.164,20.88 C118.395996,21.1360013 117.508005,21.264 116.5,21.264 Z M132.952,4.92 C132.952,4.7599992 133.031999,4.68 133.192,4.68 L143.416,4.68 C143.576001,4.68 143.656,4.7599992 143.656,4.92 L143.656,6.984 C143.656,7.1440008 143.576001,7.224 143.416,7.224 L135.928,7.224 C135.832,7.224 135.784,7.27199952 135.784,7.368 L135.784,11.352 C135.784,11.4480005 135.832,11.496 135.928,11.496 L142.24,11.496 C142.400001,11.496 142.48,11.5759992 142.48,11.736 L142.48,13.8 C142.48,13.9600008 142.400001,14.04 142.24,14.04 L135.928,14.04 C135.832,14.04 135.784,14.0879995 135.784,14.184 L135.784,18.312 C135.784,18.4080005 135.832,18.456 135.928,18.456 L143.416,18.456 C143.576001,18.456 143.656,18.5359992 143.656,18.696 L143.656,20.76 C143.656,20.9200008 143.576001,21 143.416,21 L133.192,21 C133.031999,21 132.952,20.9200008 132.952,20.76 L132.952,4.92 Z" id="PULSE"></path>
                <path d="M13,26 C5.82029825,26 0,20.1797017 0,13 C0,5.82029825 5.82029825,0 13,0 C20.1797017,0 26,5.82029825 26,13 C26,20.1797017 20.1797017,26 13,26 Z M11.46869,19.5897577 L13.9286642,11.3384281 L15.6464809,13.9386664 L20,13.9386664 C20.5522847,13.9386664 21,13.4909512 21,12.9386664 C21,12.3863817 20.5522847,11.9386664 20,11.9386664 L16.7222384,11.9386664 L13.2359883,6.66157187 L10.9258722,14.4102423 L9.56672096,11.913916 L6,11.913916 C5.44771525,11.913916 5,12.3616312 5,12.913916 C5,13.4662007 5.44771525,13.913916 6,13.913916 L8.37841806,13.913916 L11.46869,19.5897577 Z" id="Combined-Shape"></path>
            </g>
        </g>
    </g>
</svg>