<?xml version="1.0" encoding="UTF-8"?>
<svg width="320px" height="320px" viewBox="0 0 320 320" version="1.1" xmlns="http://www.w3.org/2000/svg" xmlns:xlink="http://www.w3.org/1999/xlink">
    <!-- Generator: Sketch 45.1 (43504) - http://www.bohemiancoding.com/sketch -->
    <title>pulse-mark</title>
    <desc>Created with Sketch.</desc>
    <defs></defs>
    <g id="Page-1" stroke="none" stroke-width="1" fill="none" fill-rule="evenodd">
        <g id="Artboard" transform="translate(-124.000000, -275.000000)" fill="#FFFFFF">
            <path d="M284,595 C195.63444,595 124,523.36556 124,435 C124,346.63444 195.63444,275 284,275 C372.36556,275 444,346.63444 444,435 C444,523.36556 372.36556,595 284,595 Z M265.645746,516 L295.934178,414.519296 L317.084796,446.498871 L370.6875,446.498871 C377.487506,446.498871 383,440.992552 383,434.200162 C383,427.407772 377.487506,421.901453 370.6875,421.901453 L330.33006,421.901453 L287.405606,357 L258.962301,452.298646 L242.227752,421.597054 L198.3125,421.597054 C191.512494,421.597054 186,427.103374 186,433.895763 C186,440.688153 191.512494,446.194473 198.3125,446.194473 L227.596772,446.194473 L265.645746,516 Z" id="pulse-mark"></path>
        </g>
    </g>
</svg>